<svg viewBox="0 0 13.208 48.991">
  <g transform="translate(-78.317 -83.812)" stroke="#000" stroke-width=".27093">
    <path d="m81.678 85.331c0 0.77509-0.36292 1.4034-0.8106 1.4034-0.44768 0-0.8106-0.62834-0.8106-1.4034 0-0.33204 0.27264-0.46129 0.4053-0.70161 0.17701-0.32067 0.01234-0.70182 0.4053-0.70182 0.39296 0 0.22893 0.38798 0.4053 0.70182 0.13606 0.2421 0.4053 0.36407 0.4053 0.70161z" fill="none" stroke-dasharray="0.270933, 0.270933"/>
    <path d="m81.654 88.211a0.7985 0.7985 0 0 1-0.7985 0.7985 0.7985 0.7985 0 0 1-0.7985-0.7985 0.7985 0.7985 0 0 1 0.7985-0.7985 0.7985 0.7985 0 0 1 0.7985 0.7985z" fill="none" stroke-dasharray="0.270933, 0.270933"/>
    
    <path d="m85.351 88.215a0.87109 0.89529 0 0 1-0.87109 0.89529 0.87109 0.89529 0 0 1-0.87109-0.89529 0.87109 0.89529 0 0 1 0.87109-0.89529 0.87109 0.89529 0 0 1 0.87109 0.89529z" fill="none"/>
    <path d="m87.335 88.554a0.67752 1.3066 0 0 1-0.67752 1.3066 0.67752 1.3066 0 0 1-0.67752-1.3066 0.67752 1.3066 0 0 1 0.67752-1.3066 0.67752 1.3066 0 0 1 0.67752 1.3066z" fill="none"/>
    
    <path d="m86.06 91.457c0 0.84191-0.67747 1.5244-1.5194 1.5244-0.84191 0-1.5194-0.6825-1.5194-1.5244 1e-6 -0.84191 0.67747-1.5244 1.5194-1.5244 0.84191 0 1.5194 0.6825 1.5194 1.5244z" fill="#f00"/>
    <path d="m84.54 94.129c0.83635 0 1.5194 0.29883 1.5194 0.66745s-0.68303 0.66744-1.5194 0.66744-1.5194-0.29882-1.5194-0.66744 0.68303-0.66745 1.5194-0.66745" fill="none"/>
    <path d="m86.06 97.882c0 0.84191-0.67747 1.5244-1.5194 1.5244-0.84191 0-1.5194-0.6825-1.5194-1.5244 1e-6 -0.84191 0.67747-1.5244 1.5194-1.5244 0.84191 0 1.5194 0.6825 1.5194 1.5244z" fill="none"/>
    <path d="m84.54 100.57c0.83635 0 1.5194 0.29882 1.5194 0.66744 0 0.36863-0.68303 0.66745-1.5194 0.66745s-1.5194-0.29882-1.5194-0.66745c0-0.36862 0.68303-0.66744 1.5194-0.66744" fill="none"/>
    <path d="m86.06 104.31c0 0.84192-0.67747 1.5244-1.5194 1.5244-0.84191 0-1.5194-0.6825-1.5194-1.5244 1e-6 -0.8419 0.67747-1.5244 1.5194-1.5244 0.84191 0 1.5194 0.6825 1.5194 1.5244z" fill="none"/>
    
    <path d="m83.633 108.1c0-0.59999 1.3958-0.226 1.4034-0.58071 0.01711-0.79183 4.0893-1.1721 4.0893 0.21778 0 1.3899-5.4927 0.96292-5.4927 0.36293z" fill="none"/>

    <path d="m82.375 104.87a0.94368 0.53233 0 0 1-0.94368 0.53234 0.94368 0.53233 0 0 1-0.94368-0.53234 0.94368 0.53233 0 0 1 0.94368-0.53233 0.94368 0.53233 0 0 1 0.94368 0.53233z" fill="none"/>
    <path d="m82.157 106.49a0.94368 0.53233 0 0 1-0.94368 0.53234 0.94368 0.53233 0 0 1-0.94368-0.53234 0.94368 0.53233 0 0 1 0.94368-0.53234 0.94368 0.53233 0 0 1 0.94368 0.53234" fill="none"/>
    <path d="m80.705 108.29a0.70171 0.70171 0 0 1-0.70171 0.70171 0.70171 0.70171 0 0 1-0.70172-0.70171 0.70171 0.70171 0 0 1 0.70172-0.7017 0.70171 0.70171 0 0 1 0.70171 0.7017" fill="none"/>
    <path d="m78.453 111.08c0-0.83635 0.29882-1.5194 0.66744-1.5194 0.36863 0 0.66745 0.68303 0.66745 1.5194s-0.29882 1.5194-0.66745 1.5194c-0.36862 0-0.66744-0.68302-0.66744-1.5194" fill="none"/>
    
    <path d="m88.714 111.02c-1.0872-1.0872-2.019-0.76404-2.019 0s0.36486 2.7205 2.019 2.7205z" fill="none"/>
    <path d="m89.37 111.02c1.0872-1.0872 2.019-0.76404 2.019 0s-0.36486 2.7205-2.019 2.7205z" fill="none"/>

    <path d="m88.714 115.07a0.70171 0.70171 0 0 1-0.70171 0.70172 0.70171 0.70171 0 0 1-0.70171-0.70172 0.70171 0.70171 0 0 1 0.70171-0.70171 0.70171 0.70171 0 0 1 0.70171 0.70171z" fill="none"/>
    <path d="m90.774 115.07a0.70171 0.70171 0 0 1-0.70172 0.70172 0.70171 0.70171 0 0 1-0.70171-0.70172 0.70171 0.70171 0 0 1 0.70171-0.70171 0.70171 0.70171 0 0 1 0.70172 0.70171" fill="none"/>
    
    <!-- <path d="m88.69 111.02c-1.0872-1.0872-2.0019-0.76404-2.0019 0s0.38197 2.7205 2.0361 2.7205z" fill="none"/> -->
    
    <path d="m86.06 114.23c0 0.84192-0.67747 1.5244-1.5194 1.5244-0.84191 0-1.5194-0.6825-1.5194-1.5244 1e-6 -0.8419 0.67747-1.5244 1.5194-1.5244 0.84191 0 1.5194 0.68251 1.5194 1.5244z" fill="none"/>
    <path d="m86.06 120.65c0 0.84191-0.67747 1.5244-1.5194 1.5244-0.84191 0-1.5194-0.6825-1.5194-1.5244 1e-6 -0.84191 0.67747-1.5244 1.5194-1.5244 0.84191 0 1.5194 0.68251 1.5194 1.5244z" fill="none"/>
    <path d="m84.54 123.34c0.83635 0 1.5194 0.29882 1.5194 0.66744 0 0.36863-0.68303 0.66745-1.5194 0.66745s-1.5194-0.29882-1.5194-0.66745c0-0.36862 0.68303-0.66744 1.5194-0.66744" fill="none"/>
    <path d="m86.06 127.08c0 0.84192-0.67747 1.5244-1.5194 1.5244-0.84191 0-1.5194-0.68249-1.5194-1.5244 1e-6 -0.8419 0.67747-1.5244 1.5194-1.5244 0.84191 0 1.5194 0.68251 1.5194 1.5244z" fill="none"/>
    
    <path d="m79.152 130.65c-1.0872 1.0872-0.76404 2.019 0 2.019s2.7205-0.36486 2.7205-2.019z" fill="none"/>
    <path d="m79.152 129.99c-1.0872-1.0872-0.76404-2.019 0-2.019s2.7205 0.36486 2.7205 2.019z" fill="none"/>
  </g>
</svg>
